<mxfile host="www.draw.io" modified="2019-12-18T16:05:39.472Z" agent="Mozilla/5.0 (Macintosh; Intel Mac OS X 10_14_5) AppleWebKit/537.36 (KHTML, like Gecko) Chrome/79.0.3945.79 Safari/537.36" etag="xkTfUpZzucDGVPuqpFyE" version="12.4.2" type="github" pages="1">
  <diagram id="oURParcbH2uGLynjtdYy" name="Page-1">
    <mxGraphModel dx="1186" dy="493" grid="1" gridSize="10" guides="1" tooltips="1" connect="1" arrows="1" fold="1" page="1" pageScale="1" pageWidth="850" pageHeight="1100" math="0" shadow="0">
      <root>
        <mxCell id="0"/>
        <mxCell id="1" parent="0"/>
        <UserObject label="%name%&lt;br&gt;&lt;i style=&quot;color: gray&quot;&gt;%server%&lt;/i&gt;&lt;br&gt;" name="PAJDJA00" server="" port="" placeholders="1" id="PAJDJA00">
          <mxCell style="label;image=https://logodix.com/logo/2158600.gif;whiteSpace=wrap;html=1;rounded=1;fillColor=#dae8fc;strokeColor=#6c8ebf;" parent="1" vertex="1">
            <mxGeometry x="5" y="2630" width="160" height="70" as="geometry"/>
          </mxCell>
        </UserObject>
        <UserObject label="%name%&lt;br&gt;&lt;i style=&quot;color: gray&quot;&gt;%server%&lt;/i&gt;&lt;br&gt;" name="DDFHY0C" server="TCYCUSS.OPR.TEST.STATEFARM.ORG" port="3798" placeholders="1" id="DDFHY0C">
          <mxCell style="label;image=https://logodix.com/logo/2158600.gif;whiteSpace=wrap;html=1;rounded=1;fillColor=#d5e8d4;strokeColor=#6c8ebf;" parent="1" vertex="1">
            <mxGeometry x="305" y="2080" width="330" height="70" as="geometry"/>
          </mxCell>
        </UserObject>
        <UserObject label="%name%&lt;br&gt;&lt;i style=&quot;color: gray&quot;&gt;%server%&lt;/i&gt;&lt;br&gt;" name="DDFHY0D" server="TCYDUSS.OPR.TEST.STATEFARM.ORG" port="3784" placeholders="1" id="DDFHY0D">
          <mxCell style="label;image=https://logodix.com/logo/2158600.gif;whiteSpace=wrap;html=1;rounded=1;fillColor=#d5e8d4;strokeColor=#6c8ebf;" parent="1" vertex="1">
            <mxGeometry x="305" y="1980" width="330" height="70" as="geometry"/>
          </mxCell>
        </UserObject>
        <UserObject label="%name%&lt;br&gt;&lt;i style=&quot;color: gray&quot;&gt;%server%&lt;/i&gt;&lt;br&gt;" name="PAJEWA02" server="" port="" placeholders="1" id="PAJEWA02">
          <mxCell style="label;image=https://logodix.com/logo/2158600.gif;whiteSpace=wrap;html=1;rounded=1;fillColor=#dae8fc;strokeColor=#6c8ebf;" parent="1" vertex="1">
            <mxGeometry y="230" width="170" height="70" as="geometry"/>
          </mxCell>
        </UserObject>
        <UserObject label="%name%&lt;br&gt;&lt;i style=&quot;color: gray&quot;&gt;%server%&lt;/i&gt;&lt;br&gt;" name="MQDCCL01" server="mq71dccl01.opr.test.statefarm.org" port="1414" placeholders="1" id="MQDCCL01">
          <mxCell style="label;image=https://developer.ibm.com/messaging/wp-content/uploads/sites/18/2017/09/IBM-MQ-Sticker-768x665.png;whiteSpace=wrap;html=1;rounded=1;fillColor=#DBBFF0;strokeColor=#6c8ebf;" parent="1" vertex="1">
            <mxGeometry x="320" y="1130" width="300" height="70" as="geometry"/>
          </mxCell>
        </UserObject>
        <UserObject label="%name%&lt;br&gt;&lt;i style=&quot;color: gray&quot;&gt;%server%&lt;/i&gt;&lt;br&gt;" name="MQDCCL02" server="mq71dccl02.opr.test.statefarm.org" port="1414" placeholders="1" id="MQDCCL02">
          <mxCell style="label;image=https://developer.ibm.com/messaging/wp-content/uploads/sites/18/2017/09/IBM-MQ-Sticker-768x665.png;whiteSpace=wrap;html=1;rounded=1;fillColor=#DBBFF0;strokeColor=#6c8ebf;" parent="1" vertex="1">
            <mxGeometry x="320" y="1230" width="300" height="70" as="geometry"/>
          </mxCell>
        </UserObject>
        <UserObject label="%name%&lt;br&gt;&lt;i style=&quot;color: gray&quot;&gt;%server%&lt;/i&gt;&lt;br&gt;" name="DDFHW0E" server="TCWEUSS.OPR.TEST.STATEFARM.ORG" port="5006" placeholders="1" id="DDFHW0E">
          <mxCell style="label;image=https://logodix.com/logo/2158600.gif;whiteSpace=wrap;html=1;rounded=1;fillColor=#d5e8d4;strokeColor=#6c8ebf;" parent="1" vertex="1">
            <mxGeometry x="305" y="280" width="330" height="70" as="geometry"/>
          </mxCell>
        </UserObject>
        <UserObject label="%name%&lt;br&gt;&lt;i style=&quot;color: gray&quot;&gt;%server%&lt;/i&gt;&lt;br&gt;" name="DDFHW0F" server="TCWFUSS.OPR.TEST.STATEFARM.ORG" port="5008" placeholders="1" id="DDFHW0F">
          <mxCell style="label;image=https://logodix.com/logo/2158600.gif;whiteSpace=wrap;html=1;rounded=1;fillColor=#d5e8d4;strokeColor=#6c8ebf;" parent="1" vertex="1">
            <mxGeometry x="305" y="380" width="330" height="70" as="geometry"/>
          </mxCell>
        </UserObject>
        <UserObject label="%name%&lt;br&gt;&lt;i style=&quot;color: gray&quot;&gt;%server%&lt;/i&gt;&lt;br&gt;" name="PAJFBA02" server="" port="" placeholders="1" id="PAJFBA02">
          <mxCell style="label;image=https://logodix.com/logo/2158600.gif;whiteSpace=wrap;html=1;rounded=1;fillColor=#dae8fc;strokeColor=#6c8ebf;" parent="1" vertex="1">
            <mxGeometry x="5" y="630" width="160" height="70" as="geometry"/>
          </mxCell>
        </UserObject>
        <UserObject label="%name%&lt;br&gt;&lt;i style=&quot;color: gray&quot;&gt;%server%&lt;/i&gt;&lt;br&gt;" name="DDFHX0A" server="TCXAUSS.OPR.TEST.STATEFARM.ORG" port="3758" placeholders="1" id="DDFHX0A">
          <mxCell style="label;image=https://logodix.com/logo/2158600.gif;whiteSpace=wrap;html=1;rounded=1;fillColor=#d5e8d4;strokeColor=#6c8ebf;" parent="1" vertex="1">
            <mxGeometry x="305" y="530" width="330" height="70" as="geometry"/>
          </mxCell>
        </UserObject>
        <UserObject label="%name%&lt;br&gt;&lt;i style=&quot;color: gray&quot;&gt;%server%&lt;/i&gt;&lt;br&gt;" name="DDFHX0B" server="TCXBUSS.OPR.TEST.STATEFARM.ORG" port="3796" placeholders="1" id="DDFHX0B">
          <mxCell style="label;image=https://logodix.com/logo/2158600.gif;whiteSpace=wrap;html=1;rounded=1;fillColor=#d5e8d4;strokeColor=#6c8ebf;" parent="1" vertex="1">
            <mxGeometry x="305" y="630" width="330" height="70" as="geometry"/>
          </mxCell>
        </UserObject>
        <UserObject label="%name%&lt;br&gt;&lt;i style=&quot;color: gray&quot;&gt;%server%&lt;/i&gt;&lt;br&gt;" name="ODM88D1R" server="WO71DED00000001.OPR.TEST.STATEFARM.ORG" port="3700" placeholders="1" id="ODM88D1R">
          <mxCell style="label;image=https://logodix.com/logo/2158600.gif;whiteSpace=wrap;html=1;rounded=1;fillColor=#d5e8d4;strokeColor=#6c8ebf;" parent="1" vertex="1">
            <mxGeometry x="270" y="1730" width="400" height="70" as="geometry"/>
          </mxCell>
        </UserObject>
        <UserObject label="%name%&lt;br&gt;&lt;i style=&quot;color: gray&quot;&gt;%server%&lt;/i&gt;&lt;br&gt;" name="PAJFBB00" server="" port="" placeholders="1" id="PAJFBB00">
          <mxCell style="label;image=https://logodix.com/logo/2158600.gif;whiteSpace=wrap;html=1;rounded=1;fillColor=#dae8fc;strokeColor=#6c8ebf;" parent="1" vertex="1">
            <mxGeometry x="5" y="1730" width="160" height="70" as="geometry"/>
          </mxCell>
        </UserObject>
        <UserObject label="%name%&lt;br&gt;&lt;i style=&quot;color: gray&quot;&gt;%server%&lt;/i&gt;&lt;br&gt;" name="PAJFCA02" server="" port="" placeholders="1" id="PAJFCA02">
          <mxCell style="label;image=https://logodix.com/logo/2158600.gif;whiteSpace=wrap;html=1;rounded=1;fillColor=#dae8fc;strokeColor=#6c8ebf;" parent="1" vertex="1">
            <mxGeometry x="5" y="530" width="160" height="70" as="geometry"/>
          </mxCell>
        </UserObject>
        <UserObject label="%name%&lt;br&gt;&lt;i style=&quot;color: gray&quot;&gt;%server%&lt;/i&gt;&lt;br&gt;" name="PAJFCA03" server="" port="" placeholders="1" id="PAJFCA03">
          <mxCell style="label;image=https://logodix.com/logo/2158600.gif;whiteSpace=wrap;html=1;rounded=1;fillColor=#dae8fc;strokeColor=#6c8ebf;" parent="1" vertex="1">
            <mxGeometry x="5" y="1930" width="160" height="70" as="geometry"/>
          </mxCell>
        </UserObject>
        <UserObject label="%name%&lt;br&gt;&lt;i style=&quot;color: gray&quot;&gt;%server%&lt;/i&gt;&lt;br&gt;" name="PAJFCB00" server="" port="" placeholders="1" id="PAJFCB00">
          <mxCell style="label;image=https://logodix.com/logo/2158600.gif;whiteSpace=wrap;html=1;rounded=1;fillColor=#dae8fc;strokeColor=#6c8ebf;" parent="1" vertex="1">
            <mxGeometry x="5" y="330" width="160" height="70" as="geometry"/>
          </mxCell>
        </UserObject>
        <UserObject label="%name%&lt;br&gt;&lt;i style=&quot;color: gray&quot;&gt;%server%&lt;/i&gt;&lt;br&gt;" name="PAJFGB00" server="" port="" placeholders="1" id="PAJFGB00">
          <mxCell style="label;image=https://logodix.com/logo/2158600.gif;whiteSpace=wrap;html=1;rounded=1;fillColor=#dae8fc;strokeColor=#6c8ebf;" parent="1" vertex="1">
            <mxGeometry y="3460" width="160" height="70" as="geometry"/>
          </mxCell>
        </UserObject>
        <UserObject label="%name%&lt;br&gt;&lt;i style=&quot;color: gray&quot;&gt;%server%&lt;/i&gt;&lt;br&gt;" name="PAJFIA00" server="" port="" placeholders="1" id="PAJFIA00">
          <mxCell style="label;image=https://logodix.com/logo/2158600.gif;whiteSpace=wrap;html=1;rounded=1;fillColor=#dae8fc;strokeColor=#6c8ebf;" parent="1" vertex="1">
            <mxGeometry x="5" y="1030" width="160" height="70" as="geometry"/>
          </mxCell>
        </UserObject>
        <UserObject label="%name%&lt;br&gt;&lt;i style=&quot;color: gray&quot;&gt;%server%&lt;/i&gt;&lt;br&gt;" name="PAJFLA00" server="" port="" placeholders="1" id="PAJFLA00">
          <mxCell style="label;image=https://logodix.com/logo/2158600.gif;whiteSpace=wrap;html=1;rounded=1;fillColor=#dae8fc;strokeColor=#6c8ebf;" parent="1" vertex="1">
            <mxGeometry x="5" y="1130" width="160" height="70" as="geometry"/>
          </mxCell>
        </UserObject>
        <UserObject label="%name%&lt;br&gt;&lt;i style=&quot;color: gray&quot;&gt;%server%&lt;/i&gt;&lt;br&gt;" name="PAJFOA00" server="" port="" placeholders="1" id="PAJFOA00">
          <mxCell style="label;image=https://logodix.com/logo/2158600.gif;whiteSpace=wrap;html=1;rounded=1;fillColor=#dae8fc;strokeColor=#6c8ebf;" parent="1" vertex="1">
            <mxGeometry y="3590" width="160" height="70" as="geometry"/>
          </mxCell>
        </UserObject>
        <UserObject label="%name%&lt;br&gt;&lt;i style=&quot;color: gray&quot;&gt;%server%&lt;/i&gt;&lt;br&gt;" name="PAJDMA02" server="" port="" placeholders="1" id="PAJDMA02">
          <mxCell style="label;image=https://logodix.com/logo/2158600.gif;whiteSpace=wrap;html=1;rounded=1;fillColor=#dae8fc;strokeColor=#6c8ebf;" parent="1" vertex="1">
            <mxGeometry y="2730" width="170" height="70" as="geometry"/>
          </mxCell>
        </UserObject>
        <UserObject label="%name%&lt;br&gt;&lt;i style=&quot;color: gray&quot;&gt;%server%&lt;/i&gt;&lt;br&gt;" name="PAJFQA01" server="" port="" placeholders="1" id="PAJFQA01">
          <mxCell style="label;image=https://logodix.com/logo/2158600.gif;whiteSpace=wrap;html=1;rounded=1;fillColor=#dae8fc;strokeColor=#6c8ebf;" parent="1" vertex="1">
            <mxGeometry y="3720" width="160" height="70" as="geometry"/>
          </mxCell>
        </UserObject>
        <UserObject label="%name%&lt;br&gt;&lt;i style=&quot;color: gray&quot;&gt;%server%&lt;/i&gt;&lt;br&gt;" name="PAJGGA01" server="" port="" placeholders="1" id="PAJGGA01">
          <mxCell style="label;image=https://logodix.com/logo/2158600.gif;whiteSpace=wrap;html=1;rounded=1;fillColor=#dae8fc;strokeColor=#6c8ebf;" parent="1" vertex="1">
            <mxGeometry y="2030" width="170" height="70" as="geometry"/>
          </mxCell>
        </UserObject>
        <UserObject label="%name%&lt;br&gt;&lt;i style=&quot;color: gray&quot;&gt;%server%&lt;/i&gt;&lt;br&gt;" name="PAJGGA02" server="" port="" placeholders="1" id="PAJGGA02">
          <mxCell style="label;image=https://logodix.com/logo/2158600.gif;whiteSpace=wrap;html=1;rounded=1;fillColor=#dae8fc;strokeColor=#6c8ebf;" parent="1" vertex="1">
            <mxGeometry y="2130" width="170" height="70" as="geometry"/>
          </mxCell>
        </UserObject>
        <UserObject label="%name%&lt;br&gt;&lt;i style=&quot;color: gray&quot;&gt;%server%&lt;/i&gt;&lt;br&gt;" name="PAJGGA03" server="" port="" placeholders="1" id="PAJGGA03">
          <mxCell style="label;image=https://logodix.com/logo/2158600.gif;whiteSpace=wrap;html=1;rounded=1;fillColor=#dae8fc;strokeColor=#6c8ebf;" parent="1" vertex="1">
            <mxGeometry y="2230" width="170" height="70" as="geometry"/>
          </mxCell>
        </UserObject>
        <UserObject label="%name%&lt;br&gt;&lt;i style=&quot;color: gray&quot;&gt;%server%&lt;/i&gt;&lt;br&gt;" name="PAJGHA01" server="" port="" placeholders="1" id="PAJGHA01">
          <mxCell style="label;image=https://logodix.com/logo/2158600.gif;whiteSpace=wrap;html=1;rounded=1;fillColor=#dae8fc;strokeColor=#6c8ebf;" parent="1" vertex="1">
            <mxGeometry y="3850" width="170" height="70" as="geometry"/>
          </mxCell>
        </UserObject>
        <UserObject label="%name%&lt;br&gt;&lt;i style=&quot;color: gray&quot;&gt;%server%&lt;/i&gt;&lt;br&gt;" name="PAJGKA01" server="" port="" placeholders="1" id="PAJGKA01">
          <mxCell style="label;image=https://logodix.com/logo/2158600.gif;whiteSpace=wrap;html=1;rounded=1;fillColor=#dae8fc;strokeColor=#6c8ebf;" parent="1" vertex="1">
            <mxGeometry y="1230" width="170" height="70" as="geometry"/>
          </mxCell>
        </UserObject>
        <UserObject label="%name%&lt;br&gt;&lt;i style=&quot;color: gray&quot;&gt;%server%&lt;/i&gt;&lt;br&gt;" name="PAJGPD00" server="" port="" placeholders="1" id="PAJGPD00">
          <mxCell style="label;image=https://logodix.com/logo/2158600.gif;whiteSpace=wrap;html=1;rounded=1;fillColor=#dae8fc;strokeColor=#6c8ebf;" parent="1" vertex="1">
            <mxGeometry y="3980" width="170" height="70" as="geometry"/>
          </mxCell>
        </UserObject>
        <UserObject label="%name%&lt;br&gt;&lt;i style=&quot;color: gray&quot;&gt;%server%&lt;/i&gt;&lt;br&gt;" name="PAJGPD01" server="" port="" placeholders="1" id="PAJGPD01">
          <mxCell style="label;image=https://logodix.com/logo/2158600.gif;whiteSpace=wrap;html=1;rounded=1;fillColor=#dae8fc;strokeColor=#6c8ebf;" parent="1" vertex="1">
            <mxGeometry y="4110" width="170" height="70" as="geometry"/>
          </mxCell>
        </UserObject>
        <UserObject label="%name%&lt;br&gt;&lt;i style=&quot;color: gray&quot;&gt;%server%&lt;/i&gt;&lt;br&gt;" name="PAJGPE00" server="" port="" placeholders="1" id="PAJGPE00">
          <mxCell style="label;image=https://logodix.com/logo/2158600.gif;whiteSpace=wrap;html=1;rounded=1;fillColor=#dae8fc;strokeColor=#6c8ebf;" parent="1" vertex="1">
            <mxGeometry y="4240" width="160" height="70" as="geometry"/>
          </mxCell>
        </UserObject>
        <UserObject label="%name%&lt;br&gt;&lt;i style=&quot;color: gray&quot;&gt;%server%&lt;/i&gt;&lt;br&gt;" name="PAJEGA02" server="" port="" placeholders="1" id="PAJEGA02">
          <mxCell style="label;image=https://logodix.com/logo/2158600.gif;whiteSpace=wrap;html=1;rounded=1;fillColor=#dae8fc;strokeColor=#6c8ebf;" parent="1" vertex="1">
            <mxGeometry y="1330" width="170" height="70" as="geometry"/>
          </mxCell>
        </UserObject>
        <UserObject label="%name%&lt;br&gt;&lt;i style=&quot;color: gray&quot;&gt;%server%&lt;/i&gt;&lt;br&gt;" name="PAJGQB00" server="" port="" placeholders="1" id="PAJGQB00">
          <mxCell style="label;image=https://logodix.com/logo/2158600.gif;whiteSpace=wrap;html=1;rounded=1;fillColor=#dae8fc;strokeColor=#6c8ebf;" parent="1" vertex="1">
            <mxGeometry y="3130" width="170" height="70" as="geometry"/>
          </mxCell>
        </UserObject>
        <UserObject label="%name%&lt;br&gt;&lt;i style=&quot;color: gray&quot;&gt;%server%&lt;/i&gt;&lt;br&gt;" name="PAJGUA01" server="" port="" placeholders="1" id="PAJGUA01">
          <mxCell style="label;image=https://logodix.com/logo/2158600.gif;whiteSpace=wrap;html=1;rounded=1;fillColor=#dae8fc;strokeColor=#6c8ebf;" parent="1" vertex="1">
            <mxGeometry y="1430" width="170" height="70" as="geometry"/>
          </mxCell>
        </UserObject>
        <UserObject label="%name%&lt;br&gt;&lt;i style=&quot;color: gray&quot;&gt;%server%&lt;/i&gt;&lt;br&gt;" name="PAJHOA01" server="" port="" placeholders="1" id="PAJHOA01">
          <mxCell style="label;image=https://logodix.com/logo/2158600.gif;whiteSpace=wrap;html=1;rounded=1;fillColor=#dae8fc;strokeColor=#6c8ebf;" parent="1" vertex="1">
            <mxGeometry y="4370" width="170" height="70" as="geometry"/>
          </mxCell>
        </UserObject>
        <UserObject label="%name%&lt;br&gt;&lt;i style=&quot;color: gray&quot;&gt;%server%&lt;/i&gt;&lt;br&gt;" name="PAJHPA01" server="" port="" placeholders="1" id="PAJHPA01">
          <mxCell style="label;image=https://logodix.com/logo/2158600.gif;whiteSpace=wrap;html=1;rounded=1;fillColor=#dae8fc;strokeColor=#6c8ebf;" parent="1" vertex="1">
            <mxGeometry y="4500" width="160" height="70" as="geometry"/>
          </mxCell>
        </UserObject>
        <UserObject label="%name%&lt;br&gt;&lt;i style=&quot;color: gray&quot;&gt;%server%&lt;/i&gt;&lt;br&gt;" name="PAJHQA01" server="" port="" placeholders="1" id="PAJHQA01">
          <mxCell style="label;image=https://logodix.com/logo/2158600.gif;whiteSpace=wrap;html=1;rounded=1;fillColor=#dae8fc;strokeColor=#6c8ebf;" parent="1" vertex="1">
            <mxGeometry y="3230" width="170" height="70" as="geometry"/>
          </mxCell>
        </UserObject>
        <UserObject label="%name%&lt;br&gt;&lt;i style=&quot;color: gray&quot;&gt;%server%&lt;/i&gt;&lt;br&gt;" name="MQ95DCCL01" server="MQ95DCCL01.opr.test.statefarm.org" port="1414" placeholders="1" id="MQ95DCCL01">
          <mxCell style="label;image=https://developer.ibm.com/messaging/wp-content/uploads/sites/18/2017/09/IBM-MQ-Sticker-768x665.png;whiteSpace=wrap;html=1;rounded=1;fillColor=#DBBFF0;strokeColor=#6c8ebf;" parent="1" vertex="1">
            <mxGeometry x="315" y="2180" width="310" height="70" as="geometry"/>
          </mxCell>
        </UserObject>
        <UserObject label="%name%&lt;br&gt;&lt;i style=&quot;color: gray&quot;&gt;%server%&lt;/i&gt;&lt;br&gt;" name="MQ95DCCL02" server="MQ95DCCL02.opr.test.statefarm.org" port="1414" placeholders="1" id="MQ95DCCL02">
          <mxCell style="label;image=https://developer.ibm.com/messaging/wp-content/uploads/sites/18/2017/09/IBM-MQ-Sticker-768x665.png;whiteSpace=wrap;html=1;rounded=1;fillColor=#DBBFF0;strokeColor=#6c8ebf;" parent="1" vertex="1">
            <mxGeometry x="315" y="3230" width="310" height="70" as="geometry"/>
          </mxCell>
        </UserObject>
        <UserObject label="%name%&lt;br&gt;&lt;i style=&quot;color: gray&quot;&gt;%server%&lt;/i&gt;&lt;br&gt;" name="PAJHRA00" server="" port="" placeholders="1" id="PAJHRA00">
          <mxCell style="label;image=https://logodix.com/logo/2158600.gif;whiteSpace=wrap;html=1;rounded=1;fillColor=#dae8fc;strokeColor=#6c8ebf;" parent="1" vertex="1">
            <mxGeometry y="4630" width="170" height="70" as="geometry"/>
          </mxCell>
        </UserObject>
        <UserObject label="%name%&lt;br&gt;&lt;i style=&quot;color: gray&quot;&gt;%server%&lt;/i&gt;&lt;br&gt;" name="PAJHSA01" server="" port="" placeholders="1" id="PAJHSA01">
          <mxCell style="label;image=https://logodix.com/logo/2158600.gif;whiteSpace=wrap;html=1;rounded=1;fillColor=#dae8fc;strokeColor=#6c8ebf;" parent="1" vertex="1">
            <mxGeometry y="4760" width="160" height="70" as="geometry"/>
          </mxCell>
        </UserObject>
        <UserObject label="%name%&lt;br&gt;&lt;i style=&quot;color: gray&quot;&gt;%server%&lt;/i&gt;&lt;br&gt;" name="PAJIBA00" server="" port="" placeholders="1" id="PAJIBA00">
          <mxCell style="label;image=https://logodix.com/logo/2158600.gif;whiteSpace=wrap;html=1;rounded=1;fillColor=#dae8fc;strokeColor=#6c8ebf;" parent="1" vertex="1">
            <mxGeometry x="5" y="1530" width="160" height="70" as="geometry"/>
          </mxCell>
        </UserObject>
        <UserObject label="%name%&lt;br&gt;&lt;i style=&quot;color: gray&quot;&gt;%server%&lt;/i&gt;&lt;br&gt;" name="PAJIIA01" server="" port="" placeholders="1" id="PAJIIA01">
          <mxCell style="label;image=https://logodix.com/logo/2158600.gif;whiteSpace=wrap;html=1;rounded=1;fillColor=#dae8fc;strokeColor=#6c8ebf;" parent="1" vertex="1">
            <mxGeometry x="10" y="2830" width="150" height="70" as="geometry"/>
          </mxCell>
        </UserObject>
        <UserObject label="%name%&lt;br&gt;&lt;i style=&quot;color: gray&quot;&gt;%server%&lt;/i&gt;&lt;br&gt;" name="PAJIJA00" server="" port="" placeholders="1" id="PAJIJA00">
          <mxCell style="label;image=https://logodix.com/logo/2158600.gif;whiteSpace=wrap;html=1;rounded=1;fillColor=#dae8fc;strokeColor=#6c8ebf;" parent="1" vertex="1">
            <mxGeometry x="5" y="3330" width="160" height="70" as="geometry"/>
          </mxCell>
        </UserObject>
        <UserObject label="%name%&lt;br&gt;&lt;i style=&quot;color: gray&quot;&gt;%server%&lt;/i&gt;&lt;br&gt;" name="PAJELA00" server="" port="" placeholders="1" id="PAJELA00">
          <mxCell style="label;image=https://logodix.com/logo/2158600.gif;whiteSpace=wrap;html=1;rounded=1;fillColor=#dae8fc;strokeColor=#6c8ebf;" parent="1" vertex="1">
            <mxGeometry x="5" y="1630" width="160" height="70" as="geometry"/>
          </mxCell>
        </UserObject>
        <UserObject label="%name%&lt;br&gt;&lt;i style=&quot;color: gray&quot;&gt;%server%&lt;/i&gt;&lt;br&gt;" name="PAJINA01" server="" port="" placeholders="1" id="PAJINA01">
          <mxCell style="label;image=https://logodix.com/logo/2158600.gif;whiteSpace=wrap;html=1;rounded=1;fillColor=#dae8fc;strokeColor=#6c8ebf;" parent="1" vertex="1">
            <mxGeometry y="4890" width="160" height="70" as="geometry"/>
          </mxCell>
        </UserObject>
        <UserObject label="%name%&lt;br&gt;&lt;i style=&quot;color: gray&quot;&gt;%server%&lt;/i&gt;&lt;br&gt;" name="PAJIQA01" server="" port="" placeholders="1" id="PAJIQA01">
          <mxCell style="label;image=https://logodix.com/logo/2158600.gif;whiteSpace=wrap;html=1;rounded=1;fillColor=#dae8fc;strokeColor=#6c8ebf;" parent="1" vertex="1">
            <mxGeometry x="5" y="830" width="160" height="70" as="geometry"/>
          </mxCell>
        </UserObject>
        <UserObject label="%name%&lt;br&gt;&lt;i style=&quot;color: gray&quot;&gt;%server%&lt;/i&gt;&lt;br&gt;" name="PAJIQA02" server="" port="" placeholders="1" id="PAJIQA02">
          <mxCell style="label;image=https://logodix.com/logo/2158600.gif;whiteSpace=wrap;html=1;rounded=1;fillColor=#dae8fc;strokeColor=#6c8ebf;" parent="1" vertex="1">
            <mxGeometry y="50" width="160" height="70" as="geometry"/>
          </mxCell>
        </UserObject>
        <UserObject label="%name%&lt;br&gt;&lt;i style=&quot;color: gray&quot;&gt;%server%&lt;/i&gt;&lt;br&gt;" name="ECDCTR01" server="ec71dctr01.opr.test.statefarm.org" port="1414" placeholders="1" id="ECDCTR01">
          <mxCell style="label;image=https://developer.ibm.com/messaging/wp-content/uploads/sites/18/2017/09/IBM-MQ-Sticker-768x665.png;whiteSpace=wrap;html=1;rounded=1;fillColor=#DBBFF0;strokeColor=#6c8ebf;" parent="1" vertex="1">
            <mxGeometry x="260" width="290" height="70" as="geometry"/>
          </mxCell>
        </UserObject>
        <UserObject label="%name%&lt;br&gt;&lt;i style=&quot;color: gray&quot;&gt;%server%&lt;/i&gt;&lt;br&gt;" name="ECDCTR02" server="ec71dctr02.opr.test.statefarm.org" port="1414" placeholders="1" id="ECDCTR02">
          <mxCell style="label;image=https://developer.ibm.com/messaging/wp-content/uploads/sites/18/2017/09/IBM-MQ-Sticker-768x665.png;whiteSpace=wrap;html=1;rounded=1;fillColor=#DBBFF0;strokeColor=#6c8ebf;" parent="1" vertex="1">
            <mxGeometry x="260" y="100" width="290" height="70" as="geometry"/>
          </mxCell>
        </UserObject>
        <UserObject label="%name%&lt;br&gt;&lt;i style=&quot;color: gray&quot;&gt;%server%&lt;/i&gt;&lt;br&gt;" name="PAJIRA00" server="" port="" placeholders="1" id="PAJIRA00">
          <mxCell style="label;image=https://logodix.com/logo/2158600.gif;whiteSpace=wrap;html=1;rounded=1;fillColor=#dae8fc;strokeColor=#6c8ebf;" parent="1" vertex="1">
            <mxGeometry x="5" y="2930" width="160" height="70" as="geometry"/>
          </mxCell>
        </UserObject>
        <UserObject label="%name%&lt;br&gt;&lt;i style=&quot;color: gray&quot;&gt;%server%&lt;/i&gt;&lt;br&gt;" name="PAJITA00" server="" port="" placeholders="1" id="PAJITA00">
          <mxCell style="label;image=https://logodix.com/logo/2158600.gif;whiteSpace=wrap;html=1;rounded=1;fillColor=#dae8fc;strokeColor=#6c8ebf;" parent="1" vertex="1">
            <mxGeometry x="5" y="930" width="160" height="70" as="geometry"/>
          </mxCell>
        </UserObject>
        <UserObject label="%name%&lt;br&gt;&lt;i style=&quot;color: gray&quot;&gt;%server%&lt;/i&gt;&lt;br&gt;" name="PAJJGA00" server="" port="" placeholders="1" id="PAJJGA00">
          <mxCell style="label;image=https://logodix.com/logo/2158600.gif;whiteSpace=wrap;html=1;rounded=1;fillColor=#dae8fc;strokeColor=#6c8ebf;" parent="1" vertex="1">
            <mxGeometry y="5020" width="160" height="70" as="geometry"/>
          </mxCell>
        </UserObject>
        <UserObject label="%name%&lt;br&gt;&lt;i style=&quot;color: gray&quot;&gt;%server%&lt;/i&gt;&lt;br&gt;" name="PAJJRA01" server="" port="" placeholders="1" id="PAJJRA01">
          <mxCell style="label;image=https://logodix.com/logo/2158600.gif;whiteSpace=wrap;html=1;rounded=1;fillColor=#dae8fc;strokeColor=#6c8ebf;" parent="1" vertex="1">
            <mxGeometry x="5" y="430" width="160" height="70" as="geometry"/>
          </mxCell>
        </UserObject>
        <UserObject label="%name%&lt;br&gt;&lt;i style=&quot;color: gray&quot;&gt;%server%&lt;/i&gt;&lt;br&gt;" name="PAJJRA02" server="" port="" placeholders="1" id="PAJJRA02">
          <mxCell style="label;image=https://logodix.com/logo/2158600.gif;whiteSpace=wrap;html=1;rounded=1;fillColor=#dae8fc;strokeColor=#6c8ebf;" parent="1" vertex="1">
            <mxGeometry x="5" y="3030" width="160" height="70" as="geometry"/>
          </mxCell>
        </UserObject>
        <UserObject label="%name%&lt;br&gt;&lt;i style=&quot;color: gray&quot;&gt;%server%&lt;/i&gt;&lt;br&gt;" name="PAJJSA00" server="" port="" placeholders="1" id="PAJJSA00">
          <mxCell style="label;image=https://logodix.com/logo/2158600.gif;whiteSpace=wrap;html=1;rounded=1;fillColor=#dae8fc;strokeColor=#6c8ebf;" parent="1" vertex="1">
            <mxGeometry y="5150" width="160" height="70" as="geometry"/>
          </mxCell>
        </UserObject>
        <UserObject label="%name%&lt;br&gt;&lt;i style=&quot;color: gray&quot;&gt;%server%&lt;/i&gt;&lt;br&gt;" name="PAJJSA01" server="" port="" placeholders="1" id="PAJJSA01">
          <mxCell style="label;image=https://logodix.com/logo/2158600.gif;whiteSpace=wrap;html=1;rounded=1;fillColor=#dae8fc;strokeColor=#6c8ebf;" parent="1" vertex="1">
            <mxGeometry y="5280" width="160" height="70" as="geometry"/>
          </mxCell>
        </UserObject>
        <UserObject label="%name%&lt;br&gt;&lt;i style=&quot;color: gray&quot;&gt;%server%&lt;/i&gt;&lt;br&gt;" name="PAJEQA01" server="" port="" placeholders="1" id="PAJEQA01">
          <mxCell style="label;image=https://logodix.com/logo/2158600.gif;whiteSpace=wrap;html=1;rounded=1;fillColor=#dae8fc;strokeColor=#6c8ebf;" parent="1" vertex="1">
            <mxGeometry y="730" width="170" height="70" as="geometry"/>
          </mxCell>
        </UserObject>
        <UserObject label="%name%&lt;br&gt;&lt;i style=&quot;color: gray&quot;&gt;%server%&lt;/i&gt;&lt;br&gt;" name="PAJJSA02" server="" port="" placeholders="1" id="PAJJSA02">
          <mxCell style="label;image=https://logodix.com/logo/2158600.gif;whiteSpace=wrap;html=1;rounded=1;fillColor=#dae8fc;strokeColor=#6c8ebf;" parent="1" vertex="1">
            <mxGeometry y="5410" width="160" height="70" as="geometry"/>
          </mxCell>
        </UserObject>
        <UserObject label="%name%&lt;br&gt;&lt;i style=&quot;color: gray&quot;&gt;%server%&lt;/i&gt;&lt;br&gt;" name="PAJETB00" server="" port="" placeholders="1" id="PAJETB00">
          <mxCell style="label;image=https://logodix.com/logo/2158600.gif;whiteSpace=wrap;html=1;rounded=1;fillColor=#dae8fc;strokeColor=#6c8ebf;" parent="1" vertex="1">
            <mxGeometry x="5" y="2330" width="160" height="70" as="geometry"/>
          </mxCell>
        </UserObject>
        <UserObject label="%name%&lt;br&gt;&lt;i style=&quot;color: gray&quot;&gt;%server%&lt;/i&gt;&lt;br&gt;" name="PAJETC00" server="" port="" placeholders="1" id="PAJETC00">
          <mxCell style="label;image=https://logodix.com/logo/2158600.gif;whiteSpace=wrap;html=1;rounded=1;fillColor=#dae8fc;strokeColor=#6c8ebf;" parent="1" vertex="1">
            <mxGeometry x="5" y="2430" width="160" height="70" as="geometry"/>
          </mxCell>
        </UserObject>
        <UserObject label="%name%&lt;br&gt;&lt;i style=&quot;color: gray&quot;&gt;%server%&lt;/i&gt;&lt;br&gt;" name="PAJETC02" server="" port="" placeholders="1" id="PAJETC02">
          <mxCell style="label;image=https://logodix.com/logo/2158600.gif;whiteSpace=wrap;html=1;rounded=1;fillColor=#dae8fc;strokeColor=#6c8ebf;" parent="1" vertex="1">
            <mxGeometry x="5" y="2530" width="160" height="70" as="geometry"/>
          </mxCell>
        </UserObject>
        <UserObject label="%name%&lt;br&gt;&lt;i style=&quot;color: gray&quot;&gt;%server%&lt;/i&gt;&lt;br&gt;" name="PAJEWA01" server="" port="" placeholders="1" id="PAJEWA01">
          <mxCell style="label;image=https://logodix.com/logo/2158600.gif;whiteSpace=wrap;html=1;rounded=1;fillColor=#dae8fc;strokeColor=#6c8ebf;" parent="1" vertex="1">
            <mxGeometry y="1830" width="170" height="70" as="geometry"/>
          </mxCell>
        </UserObject>
        <UserObject label="%name%&lt;br&gt;&lt;i style=&quot;color: gray&quot;&gt;%server%&lt;/i&gt;&lt;br&gt;" name="PAJDGA00" server="" port="" placeholders="1" id="PAJDGA00">
          <mxCell style="label;image=https://logodix.com/logo/2158600.gif;whiteSpace=wrap;html=1;rounded=1;fillColor=#dae8fc;strokeColor=#6c8ebf;" parent="1" vertex="1">
            <mxGeometry y="5540" width="170" height="70" as="geometry"/>
          </mxCell>
        </UserObject>
        <mxCell id="1U-jiy-VnO9qoer01Sv9-10" value="" style="curved=1;endArrow=blockThin;endFill=1;fontSize=11;noEdgeStyle=1;orthogonal=1;" parent="1" source="PAJDJA00" target="DDFHY0C" edge="1">
          <mxGeometry relative="1" as="geometry">
            <Array as="points">
              <mxPoint x="182" y="2680"/>
              <mxPoint x="244" y="2129.000000000003"/>
            </Array>
          </mxGeometry>
        </mxCell>
        <mxCell id="1U-jiy-VnO9qoer01Sv9-11" value="" style="curved=1;endArrow=blockThin;endFill=1;fontSize=11;noEdgeStyle=1;orthogonal=1;" parent="1" source="PAJFBB00" target="DDFHY0C" edge="1">
          <mxGeometry relative="1" as="geometry">
            <Array as="points">
              <mxPoint x="182" y="1789"/>
              <mxPoint x="242" y="2103.8000000000015"/>
            </Array>
          </mxGeometry>
        </mxCell>
        <mxCell id="1U-jiy-VnO9qoer01Sv9-12" value="" style="curved=1;endArrow=blockThin;endFill=1;fontSize=11;noEdgeStyle=1;orthogonal=1;" parent="1" source="PAJFCA03" target="DDFHY0C" edge="1">
          <mxGeometry relative="1" as="geometry">
            <Array as="points">
              <mxPoint x="182" y="1987.5"/>
              <mxPoint x="238" y="2109.400000000002"/>
            </Array>
          </mxGeometry>
        </mxCell>
        <mxCell id="1U-jiy-VnO9qoer01Sv9-13" value="" style="curved=1;endArrow=blockThin;endFill=1;fontSize=11;noEdgeStyle=1;orthogonal=1;" parent="1" source="PAJFIA00" target="DDFHY0C" edge="1">
          <mxGeometry relative="1" as="geometry">
            <Array as="points">
              <mxPoint x="182" y="1087.5"/>
              <mxPoint x="256" y="2084.2000000000003"/>
            </Array>
          </mxGeometry>
        </mxCell>
        <mxCell id="1U-jiy-VnO9qoer01Sv9-14" value="" style="curved=1;endArrow=blockThin;endFill=1;fontSize=11;noEdgeStyle=1;orthogonal=1;" parent="1" source="PAJFLA00" target="DDFHY0C" edge="1">
          <mxGeometry relative="1" as="geometry">
            <Array as="points">
              <mxPoint x="182" y="1187.5"/>
              <mxPoint x="254" y="2087.0000000000005"/>
            </Array>
          </mxGeometry>
        </mxCell>
        <mxCell id="1U-jiy-VnO9qoer01Sv9-15" value="" style="curved=1;endArrow=blockThin;endFill=1;fontSize=11;noEdgeStyle=1;orthogonal=1;" parent="1" source="PAJDMA02" target="DDFHY0C" edge="1">
          <mxGeometry relative="1" as="geometry">
            <Array as="points">
              <mxPoint x="182" y="2780"/>
              <mxPoint x="246" y="2131.8000000000034"/>
            </Array>
          </mxGeometry>
        </mxCell>
        <mxCell id="1U-jiy-VnO9qoer01Sv9-16" value="" style="curved=1;endArrow=blockThin;endFill=1;fontSize=11;noEdgeStyle=1;orthogonal=1;" parent="1" source="PAJGGA01" target="DDFHY0C" edge="1">
          <mxGeometry relative="1" as="geometry">
            <Array as="points">
              <mxPoint x="182" y="2080"/>
              <mxPoint x="236" y="2112.200000000002"/>
            </Array>
          </mxGeometry>
        </mxCell>
        <mxCell id="1U-jiy-VnO9qoer01Sv9-17" value="" style="curved=1;endArrow=blockThin;endFill=1;fontSize=11;noEdgeStyle=1;orthogonal=1;" parent="1" source="PAJGGA02" target="DDFHY0C" edge="1">
          <mxGeometry relative="1" as="geometry">
            <Array as="points">
              <mxPoint x="182" y="2180"/>
              <mxPoint x="234" y="2115.0000000000023"/>
            </Array>
          </mxGeometry>
        </mxCell>
        <mxCell id="1U-jiy-VnO9qoer01Sv9-18" value="" style="curved=1;endArrow=blockThin;endFill=1;fontSize=11;noEdgeStyle=1;orthogonal=1;" parent="1" source="PAJGGA03" target="DDFHY0C" edge="1">
          <mxGeometry relative="1" as="geometry">
            <Array as="points">
              <mxPoint x="182" y="2280"/>
              <mxPoint x="236" y="2117.8000000000025"/>
            </Array>
          </mxGeometry>
        </mxCell>
        <mxCell id="1U-jiy-VnO9qoer01Sv9-19" value="" style="curved=1;endArrow=blockThin;endFill=1;fontSize=11;noEdgeStyle=1;orthogonal=1;" parent="1" source="PAJGKA01" target="DDFHY0C" edge="1">
          <mxGeometry relative="1" as="geometry">
            <Array as="points">
              <mxPoint x="182" y="1289"/>
              <mxPoint x="252" y="2089.8000000000006"/>
            </Array>
          </mxGeometry>
        </mxCell>
        <mxCell id="1U-jiy-VnO9qoer01Sv9-20" value="" style="curved=1;endArrow=blockThin;endFill=1;fontSize=11;noEdgeStyle=1;orthogonal=1;" parent="1" source="PAJEGA02" target="DDFHY0C" edge="1">
          <mxGeometry relative="1" as="geometry">
            <Array as="points">
              <mxPoint x="182" y="1387.5"/>
              <mxPoint x="250" y="2092.600000000001"/>
            </Array>
          </mxGeometry>
        </mxCell>
        <mxCell id="1U-jiy-VnO9qoer01Sv9-21" value="" style="curved=1;endArrow=blockThin;endFill=1;fontSize=11;noEdgeStyle=1;orthogonal=1;" parent="1" source="PAJGQB00" target="DDFHY0C" edge="1">
          <mxGeometry relative="1" as="geometry">
            <Array as="points">
              <mxPoint x="182" y="3165"/>
              <mxPoint x="254" y="2143.000000000004"/>
            </Array>
          </mxGeometry>
        </mxCell>
        <mxCell id="1U-jiy-VnO9qoer01Sv9-22" value="" style="curved=1;endArrow=blockThin;endFill=1;fontSize=11;noEdgeStyle=1;orthogonal=1;" parent="1" source="PAJGUA01" target="DDFHY0C" edge="1">
          <mxGeometry relative="1" as="geometry">
            <Array as="points">
              <mxPoint x="182" y="1489"/>
              <mxPoint x="248" y="2095.400000000001"/>
            </Array>
          </mxGeometry>
        </mxCell>
        <mxCell id="1U-jiy-VnO9qoer01Sv9-23" value="" style="curved=1;endArrow=blockThin;endFill=1;fontSize=11;noEdgeStyle=1;orthogonal=1;" parent="1" source="PAJHQA01" target="DDFHY0C" edge="1">
          <mxGeometry relative="1" as="geometry">
            <Array as="points">
              <mxPoint x="186" y="3265"/>
              <mxPoint x="256" y="2145.8000000000043"/>
            </Array>
          </mxGeometry>
        </mxCell>
        <mxCell id="1U-jiy-VnO9qoer01Sv9-24" value="" style="curved=1;endArrow=blockThin;endFill=1;fontSize=11;noEdgeStyle=1;orthogonal=1;" parent="1" source="PAJIBA00" target="DDFHY0C" edge="1">
          <mxGeometry relative="1" as="geometry">
            <Array as="points">
              <mxPoint x="182" y="1587.5"/>
              <mxPoint x="246" y="2098.200000000001"/>
            </Array>
          </mxGeometry>
        </mxCell>
        <mxCell id="1U-jiy-VnO9qoer01Sv9-25" value="" style="curved=1;endArrow=blockThin;endFill=1;fontSize=11;noEdgeStyle=1;orthogonal=1;" parent="1" source="PAJIIA01" target="DDFHY0C" edge="1">
          <mxGeometry relative="1" as="geometry">
            <Array as="points">
              <mxPoint x="186" y="2865"/>
              <mxPoint x="248" y="2134.6000000000035"/>
            </Array>
          </mxGeometry>
        </mxCell>
        <mxCell id="1U-jiy-VnO9qoer01Sv9-26" value="" style="curved=1;endArrow=blockThin;endFill=1;fontSize=11;noEdgeStyle=1;orthogonal=1;" parent="1" source="PAJIJA00" target="DDFHY0C" edge="1">
          <mxGeometry relative="1" as="geometry">
            <Array as="points">
              <mxPoint x="184" y="3357.5"/>
              <mxPoint x="258" y="2148.6000000000045"/>
            </Array>
          </mxGeometry>
        </mxCell>
        <mxCell id="1U-jiy-VnO9qoer01Sv9-27" value="" style="curved=1;endArrow=blockThin;endFill=1;fontSize=11;noEdgeStyle=1;orthogonal=1;" parent="1" source="PAJELA00" target="DDFHY0C" edge="1">
          <mxGeometry relative="1" as="geometry">
            <Array as="points">
              <mxPoint x="182" y="1687.5"/>
              <mxPoint x="244" y="2101.0000000000014"/>
            </Array>
          </mxGeometry>
        </mxCell>
        <mxCell id="1U-jiy-VnO9qoer01Sv9-28" value="" style="curved=1;endArrow=blockThin;endFill=1;fontSize=11;noEdgeStyle=1;orthogonal=1;" parent="1" source="PAJIRA00" target="DDFHY0C" edge="1">
          <mxGeometry relative="1" as="geometry">
            <Array as="points">
              <mxPoint x="182" y="2965"/>
              <mxPoint x="250" y="2137.4000000000037"/>
            </Array>
          </mxGeometry>
        </mxCell>
        <mxCell id="1U-jiy-VnO9qoer01Sv9-29" value="" style="curved=1;endArrow=blockThin;endFill=1;fontSize=11;noEdgeStyle=1;orthogonal=1;" parent="1" source="PAJITA00" target="DDFHY0C" edge="1">
          <mxGeometry relative="1" as="geometry">
            <Array as="points">
              <mxPoint x="182" y="985"/>
              <mxPoint x="258" y="2081.4"/>
            </Array>
          </mxGeometry>
        </mxCell>
        <mxCell id="1U-jiy-VnO9qoer01Sv9-30" value="" style="curved=1;endArrow=blockThin;endFill=1;fontSize=11;noEdgeStyle=1;orthogonal=1;" parent="1" source="PAJJRA02" target="DDFHY0C" edge="1">
          <mxGeometry relative="1" as="geometry">
            <Array as="points">
              <mxPoint x="182" y="3065"/>
              <mxPoint x="252" y="2140.200000000004"/>
            </Array>
          </mxGeometry>
        </mxCell>
        <mxCell id="1U-jiy-VnO9qoer01Sv9-31" value="" style="curved=1;endArrow=blockThin;endFill=1;fontSize=11;noEdgeStyle=1;orthogonal=1;" parent="1" source="PAJETB00" target="DDFHY0C" edge="1">
          <mxGeometry relative="1" as="geometry">
            <Array as="points">
              <mxPoint x="182" y="2380"/>
              <mxPoint x="238" y="2120.6000000000026"/>
            </Array>
          </mxGeometry>
        </mxCell>
        <mxCell id="1U-jiy-VnO9qoer01Sv9-32" value="" style="curved=1;endArrow=blockThin;endFill=1;fontSize=11;noEdgeStyle=1;orthogonal=1;" parent="1" source="PAJETC00" target="DDFHY0C" edge="1">
          <mxGeometry relative="1" as="geometry">
            <Array as="points">
              <mxPoint x="182" y="2480"/>
              <mxPoint x="240" y="2123.400000000003"/>
            </Array>
          </mxGeometry>
        </mxCell>
        <mxCell id="1U-jiy-VnO9qoer01Sv9-33" value="" style="curved=1;endArrow=blockThin;endFill=1;fontSize=11;noEdgeStyle=1;orthogonal=1;" parent="1" source="PAJETC02" target="DDFHY0C" edge="1">
          <mxGeometry relative="1" as="geometry">
            <Array as="points">
              <mxPoint x="182" y="2580"/>
              <mxPoint x="242" y="2126.200000000003"/>
            </Array>
          </mxGeometry>
        </mxCell>
        <mxCell id="1U-jiy-VnO9qoer01Sv9-34" value="" style="curved=1;endArrow=blockThin;endFill=1;fontSize=11;noEdgeStyle=1;orthogonal=1;" parent="1" source="PAJEWA01" target="DDFHY0C" edge="1">
          <mxGeometry relative="1" as="geometry">
            <Array as="points">
              <mxPoint x="182" y="1889"/>
              <mxPoint x="240" y="2106.6000000000017"/>
            </Array>
          </mxGeometry>
        </mxCell>
        <mxCell id="1U-jiy-VnO9qoer01Sv9-35" value="" style="curved=1;endArrow=blockThin;endFill=1;fontSize=11;noEdgeStyle=1;orthogonal=1;" parent="1" source="PAJDJA00" target="DDFHY0D" edge="1">
          <mxGeometry relative="1" as="geometry">
            <Array as="points">
              <mxPoint x="182" y="2650"/>
              <mxPoint x="250" y="2034.9999999999989"/>
            </Array>
          </mxGeometry>
        </mxCell>
        <mxCell id="1U-jiy-VnO9qoer01Sv9-36" value="" style="curved=1;endArrow=blockThin;endFill=1;fontSize=11;noEdgeStyle=1;orthogonal=1;" parent="1" source="PAJFBB00" target="DDFHY0D" edge="1">
          <mxGeometry relative="1" as="geometry">
            <Array as="points">
              <mxPoint x="184" y="1777"/>
              <mxPoint x="244" y="2004.9999999999995"/>
            </Array>
          </mxGeometry>
        </mxCell>
        <mxCell id="1U-jiy-VnO9qoer01Sv9-37" value="" style="curved=1;endArrow=blockThin;endFill=1;fontSize=11;noEdgeStyle=1;orthogonal=1;" parent="1" source="PAJFCA03" target="DDFHY0D" edge="1">
          <mxGeometry relative="1" as="geometry">
            <Array as="points">
              <mxPoint x="184" y="1972.5"/>
              <mxPoint x="240" y="2011.666666666666"/>
            </Array>
          </mxGeometry>
        </mxCell>
        <mxCell id="1U-jiy-VnO9qoer01Sv9-38" value="" style="curved=1;endArrow=blockThin;endFill=1;fontSize=11;noEdgeStyle=1;orthogonal=1;" parent="1" source="PAJFIA00" target="DDFHY0D" edge="1">
          <mxGeometry relative="1" as="geometry">
            <Array as="points">
              <mxPoint x="184" y="1072.5"/>
              <mxPoint x="258" y="1981.6666666666667"/>
            </Array>
          </mxGeometry>
        </mxCell>
        <mxCell id="1U-jiy-VnO9qoer01Sv9-39" value="" style="curved=1;endArrow=blockThin;endFill=1;fontSize=11;noEdgeStyle=1;orthogonal=1;" parent="1" source="PAJFLA00" target="DDFHY0D" edge="1">
          <mxGeometry relative="1" as="geometry">
            <Array as="points">
              <mxPoint x="184" y="1172.5"/>
              <mxPoint x="256" y="1985"/>
            </Array>
          </mxGeometry>
        </mxCell>
        <mxCell id="1U-jiy-VnO9qoer01Sv9-40" value="" style="curved=1;endArrow=blockThin;endFill=1;fontSize=11;noEdgeStyle=1;orthogonal=1;" parent="1" source="PAJDMA02" target="DDFHY0D" edge="1">
          <mxGeometry relative="1" as="geometry">
            <Array as="points">
              <mxPoint x="182" y="2750"/>
              <mxPoint x="252" y="2038.3333333333321"/>
            </Array>
          </mxGeometry>
        </mxCell>
        <mxCell id="1U-jiy-VnO9qoer01Sv9-41" value="" style="curved=1;endArrow=blockThin;endFill=1;fontSize=11;noEdgeStyle=1;orthogonal=1;" parent="1" source="PAJGGA01" target="DDFHY0D" edge="1">
          <mxGeometry relative="1" as="geometry">
            <Array as="points">
              <mxPoint x="182" y="2050"/>
              <mxPoint x="238" y="2014.9999999999993"/>
            </Array>
          </mxGeometry>
        </mxCell>
        <mxCell id="1U-jiy-VnO9qoer01Sv9-42" value="" style="curved=1;endArrow=blockThin;endFill=1;fontSize=11;noEdgeStyle=1;orthogonal=1;" parent="1" source="PAJGGA02" target="DDFHY0D" edge="1">
          <mxGeometry relative="1" as="geometry">
            <Array as="points">
              <mxPoint x="182" y="2150"/>
              <mxPoint x="240" y="2018.3333333333326"/>
            </Array>
          </mxGeometry>
        </mxCell>
        <mxCell id="1U-jiy-VnO9qoer01Sv9-43" value="" style="curved=1;endArrow=blockThin;endFill=1;fontSize=11;noEdgeStyle=1;orthogonal=1;" parent="1" source="PAJGGA03" target="DDFHY0D" edge="1">
          <mxGeometry relative="1" as="geometry">
            <Array as="points">
              <mxPoint x="182" y="2250"/>
              <mxPoint x="242" y="2021.6666666666658"/>
            </Array>
          </mxGeometry>
        </mxCell>
        <mxCell id="1U-jiy-VnO9qoer01Sv9-44" value="" style="curved=1;endArrow=blockThin;endFill=1;fontSize=11;noEdgeStyle=1;orthogonal=1;" parent="1" source="PAJGKA01" target="DDFHY0D" edge="1">
          <mxGeometry relative="1" as="geometry">
            <Array as="points">
              <mxPoint x="184" y="1277"/>
              <mxPoint x="254" y="1988.3333333333333"/>
            </Array>
          </mxGeometry>
        </mxCell>
        <mxCell id="1U-jiy-VnO9qoer01Sv9-45" value="" style="curved=1;endArrow=blockThin;endFill=1;fontSize=11;noEdgeStyle=1;orthogonal=1;" parent="1" source="PAJEGA02" target="DDFHY0D" edge="1">
          <mxGeometry relative="1" as="geometry">
            <Array as="points">
              <mxPoint x="184" y="1372.5"/>
              <mxPoint x="252" y="1991.6666666666665"/>
            </Array>
          </mxGeometry>
        </mxCell>
        <mxCell id="1U-jiy-VnO9qoer01Sv9-46" value="" style="curved=1;endArrow=blockThin;endFill=1;fontSize=11;noEdgeStyle=1;orthogonal=1;" parent="1" source="PAJGUA01" target="DDFHY0D" edge="1">
          <mxGeometry relative="1" as="geometry">
            <Array as="points">
              <mxPoint x="184" y="1477"/>
              <mxPoint x="250" y="1994.9999999999998"/>
            </Array>
          </mxGeometry>
        </mxCell>
        <mxCell id="1U-jiy-VnO9qoer01Sv9-47" value="" style="curved=1;endArrow=blockThin;endFill=1;fontSize=11;noEdgeStyle=1;orthogonal=1;" parent="1" source="PAJHQA01" target="DDFHY0D" edge="1">
          <mxGeometry relative="1" as="geometry">
            <Array as="points">
              <mxPoint x="184" y="3253"/>
              <mxPoint x="256" y="2044.9999999999986"/>
            </Array>
          </mxGeometry>
        </mxCell>
        <mxCell id="1U-jiy-VnO9qoer01Sv9-48" value="" style="curved=1;endArrow=blockThin;endFill=1;fontSize=11;noEdgeStyle=1;orthogonal=1;" parent="1" source="PAJIBA00" target="DDFHY0D" edge="1">
          <mxGeometry relative="1" as="geometry">
            <Array as="points">
              <mxPoint x="184" y="1572.5"/>
              <mxPoint x="248" y="1998.333333333333"/>
            </Array>
          </mxGeometry>
        </mxCell>
        <mxCell id="1U-jiy-VnO9qoer01Sv9-49" value="" style="curved=1;endArrow=blockThin;endFill=1;fontSize=11;noEdgeStyle=1;orthogonal=1;" parent="1" source="PAJIIA01" target="DDFHY0D" edge="1">
          <mxGeometry relative="1" as="geometry">
            <Array as="points">
              <mxPoint x="184" y="2853"/>
              <mxPoint x="254" y="2041.6666666666654"/>
            </Array>
          </mxGeometry>
        </mxCell>
        <mxCell id="1U-jiy-VnO9qoer01Sv9-50" value="" style="curved=1;endArrow=blockThin;endFill=1;fontSize=11;noEdgeStyle=1;orthogonal=1;" parent="1" source="PAJIJA00" target="DDFHY0D" edge="1">
          <mxGeometry relative="1" as="geometry">
            <Array as="points">
              <mxPoint x="182" y="3342.5"/>
              <mxPoint x="258" y="2048.333333333332"/>
            </Array>
          </mxGeometry>
        </mxCell>
        <mxCell id="1U-jiy-VnO9qoer01Sv9-51" value="" style="curved=1;endArrow=blockThin;endFill=1;fontSize=11;noEdgeStyle=1;orthogonal=1;" parent="1" source="PAJELA00" target="DDFHY0D" edge="1">
          <mxGeometry relative="1" as="geometry">
            <Array as="points">
              <mxPoint x="184" y="1672.5"/>
              <mxPoint x="246" y="2001.6666666666663"/>
            </Array>
          </mxGeometry>
        </mxCell>
        <mxCell id="1U-jiy-VnO9qoer01Sv9-52" value="" style="curved=1;endArrow=blockThin;endFill=1;fontSize=11;noEdgeStyle=1;orthogonal=1;" parent="1" source="PAJETB00" target="DDFHY0D" edge="1">
          <mxGeometry relative="1" as="geometry">
            <Array as="points">
              <mxPoint x="182" y="2350"/>
              <mxPoint x="244" y="2024.999999999999"/>
            </Array>
          </mxGeometry>
        </mxCell>
        <mxCell id="1U-jiy-VnO9qoer01Sv9-53" value="" style="curved=1;endArrow=blockThin;endFill=1;fontSize=11;noEdgeStyle=1;orthogonal=1;" parent="1" source="PAJETC00" target="DDFHY0D" edge="1">
          <mxGeometry relative="1" as="geometry">
            <Array as="points">
              <mxPoint x="182" y="2450"/>
              <mxPoint x="246" y="2028.3333333333323"/>
            </Array>
          </mxGeometry>
        </mxCell>
        <mxCell id="1U-jiy-VnO9qoer01Sv9-54" value="" style="curved=1;endArrow=blockThin;endFill=1;fontSize=11;noEdgeStyle=1;orthogonal=1;" parent="1" source="PAJETC02" target="DDFHY0D" edge="1">
          <mxGeometry relative="1" as="geometry">
            <Array as="points">
              <mxPoint x="182" y="2550"/>
              <mxPoint x="248" y="2031.6666666666656"/>
            </Array>
          </mxGeometry>
        </mxCell>
        <mxCell id="1U-jiy-VnO9qoer01Sv9-55" value="" style="curved=1;endArrow=blockThin;endFill=1;fontSize=11;noEdgeStyle=1;orthogonal=1;" parent="1" source="PAJEWA01" target="DDFHY0D" edge="1">
          <mxGeometry relative="1" as="geometry">
            <Array as="points">
              <mxPoint x="184" y="1877"/>
              <mxPoint x="242" y="2008.3333333333328"/>
            </Array>
          </mxGeometry>
        </mxCell>
        <mxCell id="1U-jiy-VnO9qoer01Sv9-56" value="" style="curved=1;endArrow=blockThin;endFill=1;fontSize=11;noEdgeStyle=1;orthogonal=1;" parent="1" source="PAJEWA02" target="MQDCCL01" edge="1">
          <mxGeometry relative="1" as="geometry">
            <Array as="points">
              <mxPoint x="184" y="272.5"/>
              <mxPoint x="258" y="1132.0588235294117"/>
            </Array>
          </mxGeometry>
        </mxCell>
        <mxCell id="1U-jiy-VnO9qoer01Sv9-57" value="" style="curved=1;endArrow=blockThin;endFill=1;fontSize=11;noEdgeStyle=1;orthogonal=1;" parent="1" source="PAJFBA02" target="MQDCCL01" edge="1">
          <mxGeometry relative="1" as="geometry">
            <Array as="points">
              <mxPoint x="186" y="665"/>
              <mxPoint x="252" y="1144.411764705882"/>
            </Array>
          </mxGeometry>
        </mxCell>
        <mxCell id="1U-jiy-VnO9qoer01Sv9-58" value="" style="curved=1;endArrow=blockThin;endFill=1;fontSize=11;noEdgeStyle=1;orthogonal=1;" parent="1" source="PAJFBB00" target="MQDCCL01" edge="1">
          <mxGeometry relative="1" as="geometry">
            <Array as="points">
              <mxPoint x="182" y="1741"/>
              <mxPoint x="254" y="1189.7058823529396"/>
            </Array>
          </mxGeometry>
        </mxCell>
        <mxCell id="1U-jiy-VnO9qoer01Sv9-59" value="" style="curved=1;endArrow=blockThin;endFill=1;fontSize=11;noEdgeStyle=1;orthogonal=1;" parent="1" source="PAJFCA02" target="MQDCCL01" edge="1">
          <mxGeometry relative="1" as="geometry">
            <Array as="points">
              <mxPoint x="184" y="572.5"/>
              <mxPoint x="254" y="1140.2941176470586"/>
            </Array>
          </mxGeometry>
        </mxCell>
        <mxCell id="1U-jiy-VnO9qoer01Sv9-60" value="" style="curved=1;endArrow=blockThin;endFill=1;fontSize=11;noEdgeStyle=1;orthogonal=1;" parent="1" source="PAJFCA03" target="MQDCCL01" edge="1">
          <mxGeometry relative="1" as="geometry">
            <Array as="points">
              <mxPoint x="182" y="1942.5"/>
              <mxPoint x="258" y="1197.9411764705865"/>
            </Array>
          </mxGeometry>
        </mxCell>
        <mxCell id="1U-jiy-VnO9qoer01Sv9-61" value="" style="curved=1;endArrow=blockThin;endFill=1;fontSize=11;noEdgeStyle=1;orthogonal=1;" parent="1" source="PAJFCB00" target="MQDCCL01" edge="1">
          <mxGeometry relative="1" as="geometry">
            <Array as="points">
              <mxPoint x="184" y="372.5"/>
              <mxPoint x="256" y="1136.1764705882351"/>
            </Array>
          </mxGeometry>
        </mxCell>
        <mxCell id="1U-jiy-VnO9qoer01Sv9-62" value="" style="curved=1;endArrow=blockThin;endFill=1;fontSize=11;noEdgeStyle=1;orthogonal=1;" parent="1" source="PAJFIA00" target="MQDCCL01" edge="1">
          <mxGeometry relative="1" as="geometry">
            <Array as="points">
              <mxPoint x="182" y="1042.5"/>
              <mxPoint x="244" y="1160.8823529411757"/>
            </Array>
          </mxGeometry>
        </mxCell>
        <mxCell id="1U-jiy-VnO9qoer01Sv9-63" value="" style="curved=1;endArrow=blockThin;endFill=1;fontSize=11;noEdgeStyle=1;orthogonal=1;" parent="1" source="PAJFLA00" target="MQDCCL01" edge="1">
          <mxGeometry relative="1" as="geometry">
            <Array as="points">
              <mxPoint x="182" y="1142.5"/>
              <mxPoint x="242" y="1164.999999999999"/>
            </Array>
          </mxGeometry>
        </mxCell>
        <mxCell id="1U-jiy-VnO9qoer01Sv9-64" value="" style="curved=1;endArrow=blockThin;endFill=1;fontSize=11;noEdgeStyle=1;orthogonal=1;" parent="1" source="PAJGKA01" target="MQDCCL01" edge="1">
          <mxGeometry relative="1" as="geometry">
            <Array as="points">
              <mxPoint x="182" y="1241"/>
              <mxPoint x="244" y="1169.1176470588225"/>
            </Array>
          </mxGeometry>
        </mxCell>
        <mxCell id="1U-jiy-VnO9qoer01Sv9-65" value="" style="curved=1;endArrow=blockThin;endFill=1;fontSize=11;noEdgeStyle=1;orthogonal=1;" parent="1" source="PAJEGA02" target="MQDCCL01" edge="1">
          <mxGeometry relative="1" as="geometry">
            <Array as="points">
              <mxPoint x="182" y="1342.5"/>
              <mxPoint x="246" y="1173.235294117646"/>
            </Array>
          </mxGeometry>
        </mxCell>
        <mxCell id="1U-jiy-VnO9qoer01Sv9-66" value="" style="curved=1;endArrow=blockThin;endFill=1;fontSize=11;noEdgeStyle=1;orthogonal=1;" parent="1" source="PAJGUA01" target="MQDCCL01" edge="1">
          <mxGeometry relative="1" as="geometry">
            <Array as="points">
              <mxPoint x="182" y="1441"/>
              <mxPoint x="248" y="1177.3529411764694"/>
            </Array>
          </mxGeometry>
        </mxCell>
        <mxCell id="1U-jiy-VnO9qoer01Sv9-67" value="" style="curved=1;endArrow=blockThin;endFill=1;fontSize=11;noEdgeStyle=1;orthogonal=1;" parent="1" source="PAJIBA00" target="MQDCCL01" edge="1">
          <mxGeometry relative="1" as="geometry">
            <Array as="points">
              <mxPoint x="182" y="1542.5"/>
              <mxPoint x="250" y="1181.4705882352928"/>
            </Array>
          </mxGeometry>
        </mxCell>
        <mxCell id="1U-jiy-VnO9qoer01Sv9-68" value="" style="curved=1;endArrow=blockThin;endFill=1;fontSize=11;noEdgeStyle=1;orthogonal=1;" parent="1" source="PAJELA00" target="MQDCCL01" edge="1">
          <mxGeometry relative="1" as="geometry">
            <Array as="points">
              <mxPoint x="182" y="1642.5"/>
              <mxPoint x="252" y="1185.5882352941162"/>
            </Array>
          </mxGeometry>
        </mxCell>
        <mxCell id="1U-jiy-VnO9qoer01Sv9-69" value="" style="curved=1;endArrow=blockThin;endFill=1;fontSize=11;noEdgeStyle=1;orthogonal=1;" parent="1" source="PAJIQA01" target="MQDCCL01" edge="1">
          <mxGeometry relative="1" as="geometry">
            <Array as="points">
              <mxPoint x="182" y="850"/>
              <mxPoint x="248" y="1152.6470588235288"/>
            </Array>
          </mxGeometry>
        </mxCell>
        <mxCell id="1U-jiy-VnO9qoer01Sv9-70" value="" style="curved=1;endArrow=blockThin;endFill=1;fontSize=11;noEdgeStyle=1;orthogonal=1;" parent="1" source="PAJITA00" target="MQDCCL01" edge="1">
          <mxGeometry relative="1" as="geometry">
            <Array as="points">
              <mxPoint x="182" y="945"/>
              <mxPoint x="246" y="1156.7647058823522"/>
            </Array>
          </mxGeometry>
        </mxCell>
        <mxCell id="1U-jiy-VnO9qoer01Sv9-71" value="" style="curved=1;endArrow=blockThin;endFill=1;fontSize=11;noEdgeStyle=1;orthogonal=1;" parent="1" source="PAJEQA01" target="MQDCCL01" edge="1">
          <mxGeometry relative="1" as="geometry">
            <Array as="points">
              <mxPoint x="182" y="750"/>
              <mxPoint x="250" y="1148.5294117647054"/>
            </Array>
          </mxGeometry>
        </mxCell>
        <mxCell id="1U-jiy-VnO9qoer01Sv9-72" value="" style="curved=1;endArrow=blockThin;endFill=1;fontSize=11;noEdgeStyle=1;orthogonal=1;" parent="1" source="PAJEWA01" target="MQDCCL01" edge="1">
          <mxGeometry relative="1" as="geometry">
            <Array as="points">
              <mxPoint x="182" y="1841"/>
              <mxPoint x="256" y="1193.823529411763"/>
            </Array>
          </mxGeometry>
        </mxCell>
        <mxCell id="1U-jiy-VnO9qoer01Sv9-73" value="" style="curved=1;endArrow=blockThin;endFill=1;fontSize=11;noEdgeStyle=1;orthogonal=1;" parent="1" source="PAJEWA02" target="MQDCCL02" edge="1">
          <mxGeometry relative="1" as="geometry">
            <Array as="points">
              <mxPoint x="182" y="287.5"/>
              <mxPoint x="258" y="1232.0588235294117"/>
            </Array>
          </mxGeometry>
        </mxCell>
        <mxCell id="1U-jiy-VnO9qoer01Sv9-74" value="" style="curved=1;endArrow=blockThin;endFill=1;fontSize=11;noEdgeStyle=1;orthogonal=1;" parent="1" source="PAJFBA02" target="MQDCCL02" edge="1">
          <mxGeometry relative="1" as="geometry">
            <Array as="points">
              <mxPoint x="184" y="677"/>
              <mxPoint x="252" y="1244.411764705882"/>
            </Array>
          </mxGeometry>
        </mxCell>
        <mxCell id="1U-jiy-VnO9qoer01Sv9-75" value="" style="curved=1;endArrow=blockThin;endFill=1;fontSize=11;noEdgeStyle=1;orthogonal=1;" parent="1" source="PAJFBB00" target="MQDCCL02" edge="1">
          <mxGeometry relative="1" as="geometry">
            <Array as="points">
              <mxPoint x="184" y="1753"/>
              <mxPoint x="254" y="1289.7058823529396"/>
            </Array>
          </mxGeometry>
        </mxCell>
        <mxCell id="1U-jiy-VnO9qoer01Sv9-76" value="" style="curved=1;endArrow=blockThin;endFill=1;fontSize=11;noEdgeStyle=1;orthogonal=1;" parent="1" source="PAJFCA02" target="MQDCCL02" edge="1">
          <mxGeometry relative="1" as="geometry">
            <Array as="points">
              <mxPoint x="182" y="587.5"/>
              <mxPoint x="254" y="1240.2941176470586"/>
            </Array>
          </mxGeometry>
        </mxCell>
        <mxCell id="1U-jiy-VnO9qoer01Sv9-77" value="" style="curved=1;endArrow=blockThin;endFill=1;fontSize=11;noEdgeStyle=1;orthogonal=1;" parent="1" source="PAJFCA03" target="MQDCCL02" edge="1">
          <mxGeometry relative="1" as="geometry">
            <Array as="points">
              <mxPoint x="184" y="1957.5"/>
              <mxPoint x="258" y="1297.9411764705865"/>
            </Array>
          </mxGeometry>
        </mxCell>
        <mxCell id="1U-jiy-VnO9qoer01Sv9-78" value="" style="curved=1;endArrow=blockThin;endFill=1;fontSize=11;noEdgeStyle=1;orthogonal=1;" parent="1" source="PAJFCB00" target="MQDCCL02" edge="1">
          <mxGeometry relative="1" as="geometry">
            <Array as="points">
              <mxPoint x="182" y="387.5"/>
              <mxPoint x="256" y="1236.1764705882351"/>
            </Array>
          </mxGeometry>
        </mxCell>
        <mxCell id="1U-jiy-VnO9qoer01Sv9-79" value="" style="curved=1;endArrow=blockThin;endFill=1;fontSize=11;noEdgeStyle=1;orthogonal=1;" parent="1" source="PAJFIA00" target="MQDCCL02" edge="1">
          <mxGeometry relative="1" as="geometry">
            <Array as="points">
              <mxPoint x="184" y="1057.5"/>
              <mxPoint x="244" y="1260.8823529411757"/>
            </Array>
          </mxGeometry>
        </mxCell>
        <mxCell id="1U-jiy-VnO9qoer01Sv9-80" value="" style="curved=1;endArrow=blockThin;endFill=1;fontSize=11;noEdgeStyle=1;orthogonal=1;" parent="1" source="PAJFLA00" target="MQDCCL02" edge="1">
          <mxGeometry relative="1" as="geometry">
            <Array as="points">
              <mxPoint x="184" y="1157.5"/>
              <mxPoint x="242" y="1264.999999999999"/>
            </Array>
          </mxGeometry>
        </mxCell>
        <mxCell id="1U-jiy-VnO9qoer01Sv9-81" value="" style="curved=1;endArrow=blockThin;endFill=1;fontSize=11;noEdgeStyle=1;orthogonal=1;" parent="1" source="PAJGKA01" target="MQDCCL02" edge="1">
          <mxGeometry relative="1" as="geometry">
            <Array as="points">
              <mxPoint x="184" y="1253"/>
              <mxPoint x="244" y="1269.1176470588225"/>
            </Array>
          </mxGeometry>
        </mxCell>
        <mxCell id="1U-jiy-VnO9qoer01Sv9-82" value="" style="curved=1;endArrow=blockThin;endFill=1;fontSize=11;noEdgeStyle=1;orthogonal=1;" parent="1" source="PAJEGA02" target="MQDCCL02" edge="1">
          <mxGeometry relative="1" as="geometry">
            <Array as="points">
              <mxPoint x="184" y="1357.5"/>
              <mxPoint x="246" y="1273.235294117646"/>
            </Array>
          </mxGeometry>
        </mxCell>
        <mxCell id="1U-jiy-VnO9qoer01Sv9-83" value="" style="curved=1;endArrow=blockThin;endFill=1;fontSize=11;noEdgeStyle=1;orthogonal=1;" parent="1" source="PAJGUA01" target="MQDCCL02" edge="1">
          <mxGeometry relative="1" as="geometry">
            <Array as="points">
              <mxPoint x="184" y="1453"/>
              <mxPoint x="248" y="1277.3529411764694"/>
            </Array>
          </mxGeometry>
        </mxCell>
        <mxCell id="1U-jiy-VnO9qoer01Sv9-84" value="" style="curved=1;endArrow=blockThin;endFill=1;fontSize=11;noEdgeStyle=1;orthogonal=1;" parent="1" source="PAJIBA00" target="MQDCCL02" edge="1">
          <mxGeometry relative="1" as="geometry">
            <Array as="points">
              <mxPoint x="184" y="1557.5"/>
              <mxPoint x="250" y="1281.4705882352928"/>
            </Array>
          </mxGeometry>
        </mxCell>
        <mxCell id="1U-jiy-VnO9qoer01Sv9-85" value="" style="curved=1;endArrow=blockThin;endFill=1;fontSize=11;noEdgeStyle=1;orthogonal=1;" parent="1" source="PAJELA00" target="MQDCCL02" edge="1">
          <mxGeometry relative="1" as="geometry">
            <Array as="points">
              <mxPoint x="184" y="1657.5"/>
              <mxPoint x="252" y="1285.5882352941162"/>
            </Array>
          </mxGeometry>
        </mxCell>
        <mxCell id="1U-jiy-VnO9qoer01Sv9-86" value="" style="curved=1;endArrow=blockThin;endFill=1;fontSize=11;noEdgeStyle=1;orthogonal=1;" parent="1" source="PAJIQA01" target="MQDCCL02" edge="1">
          <mxGeometry relative="1" as="geometry">
            <Array as="points">
              <mxPoint x="182" y="880"/>
              <mxPoint x="248" y="1252.6470588235288"/>
            </Array>
          </mxGeometry>
        </mxCell>
        <mxCell id="1U-jiy-VnO9qoer01Sv9-87" value="" style="curved=1;endArrow=blockThin;endFill=1;fontSize=11;noEdgeStyle=1;orthogonal=1;" parent="1" source="PAJITA00" target="MQDCCL02" edge="1">
          <mxGeometry relative="1" as="geometry">
            <Array as="points">
              <mxPoint x="184" y="965"/>
              <mxPoint x="246" y="1256.7647058823522"/>
            </Array>
          </mxGeometry>
        </mxCell>
        <mxCell id="1U-jiy-VnO9qoer01Sv9-88" value="" style="curved=1;endArrow=blockThin;endFill=1;fontSize=11;noEdgeStyle=1;orthogonal=1;" parent="1" source="PAJEQA01" target="MQDCCL02" edge="1">
          <mxGeometry relative="1" as="geometry">
            <Array as="points">
              <mxPoint x="182" y="780"/>
              <mxPoint x="250" y="1248.5294117647054"/>
            </Array>
          </mxGeometry>
        </mxCell>
        <mxCell id="1U-jiy-VnO9qoer01Sv9-89" value="" style="curved=1;endArrow=blockThin;endFill=1;fontSize=11;noEdgeStyle=1;orthogonal=1;" parent="1" source="PAJEWA01" target="MQDCCL02" edge="1">
          <mxGeometry relative="1" as="geometry">
            <Array as="points">
              <mxPoint x="184" y="1853"/>
              <mxPoint x="256" y="1293.823529411763"/>
            </Array>
          </mxGeometry>
        </mxCell>
        <mxCell id="1U-jiy-VnO9qoer01Sv9-90" value="" style="curved=1;endArrow=blockThin;endFill=1;fontSize=11;noEdgeStyle=1;orthogonal=1;" parent="1" source="PAJEWA02" target="DDFHW0E" edge="1">
          <mxGeometry relative="1" as="geometry">
            <Array as="points">
              <mxPoint x="182" y="242.5"/>
              <mxPoint x="258" y="300"/>
            </Array>
          </mxGeometry>
        </mxCell>
        <mxCell id="1U-jiy-VnO9qoer01Sv9-91" value="" style="curved=1;endArrow=blockThin;endFill=1;fontSize=11;noEdgeStyle=1;orthogonal=1;" parent="1" source="PAJFCB00" target="DDFHW0E" edge="1">
          <mxGeometry relative="1" as="geometry">
            <Array as="points">
              <mxPoint x="182" y="342.5"/>
              <mxPoint x="258" y="330"/>
            </Array>
          </mxGeometry>
        </mxCell>
        <mxCell id="1U-jiy-VnO9qoer01Sv9-92" value="" style="curved=1;endArrow=blockThin;endFill=1;fontSize=11;noEdgeStyle=1;orthogonal=1;" parent="1" source="PAJEWA02" target="DDFHW0F" edge="1">
          <mxGeometry relative="1" as="geometry">
            <Array as="points">
              <mxPoint x="184" y="257.5"/>
              <mxPoint x="258" y="400"/>
            </Array>
          </mxGeometry>
        </mxCell>
        <mxCell id="1U-jiy-VnO9qoer01Sv9-93" value="" style="curved=1;endArrow=blockThin;endFill=1;fontSize=11;noEdgeStyle=1;orthogonal=1;" parent="1" source="PAJFCB00" target="DDFHW0F" edge="1">
          <mxGeometry relative="1" as="geometry">
            <Array as="points">
              <mxPoint x="184" y="357.5"/>
              <mxPoint x="258" y="430"/>
            </Array>
          </mxGeometry>
        </mxCell>
        <mxCell id="1U-jiy-VnO9qoer01Sv9-94" value="" style="curved=1;endArrow=blockThin;endFill=1;fontSize=11;noEdgeStyle=1;orthogonal=1;" parent="1" source="PAJFBA02" target="DDFHX0A" edge="1">
          <mxGeometry relative="1" as="geometry">
            <Array as="points">
              <mxPoint x="182" y="641"/>
              <mxPoint x="258" y="585"/>
            </Array>
          </mxGeometry>
        </mxCell>
        <mxCell id="1U-jiy-VnO9qoer01Sv9-95" value="" style="curved=1;endArrow=blockThin;endFill=1;fontSize=11;noEdgeStyle=1;orthogonal=1;" parent="1" source="PAJFCA02" target="DDFHX0A" edge="1">
          <mxGeometry relative="1" as="geometry">
            <Array as="points">
              <mxPoint x="182" y="542.5"/>
              <mxPoint x="256" y="565"/>
            </Array>
          </mxGeometry>
        </mxCell>
        <mxCell id="1U-jiy-VnO9qoer01Sv9-96" value="" style="curved=1;endArrow=blockThin;endFill=1;fontSize=11;noEdgeStyle=1;orthogonal=1;" parent="1" source="PAJJRA01" target="DDFHX0A" edge="1">
          <mxGeometry relative="1" as="geometry">
            <Array as="points">
              <mxPoint x="182" y="465"/>
              <mxPoint x="258" y="545"/>
            </Array>
          </mxGeometry>
        </mxCell>
        <mxCell id="1U-jiy-VnO9qoer01Sv9-97" value="" style="curved=1;endArrow=blockThin;endFill=1;fontSize=11;noEdgeStyle=1;orthogonal=1;" parent="1" source="PAJFBA02" target="DDFHX0B" edge="1">
          <mxGeometry relative="1" as="geometry">
            <Array as="points">
              <mxPoint x="184" y="653"/>
              <mxPoint x="258" y="680"/>
            </Array>
          </mxGeometry>
        </mxCell>
        <mxCell id="1U-jiy-VnO9qoer01Sv9-98" value="" style="curved=1;endArrow=blockThin;endFill=1;fontSize=11;noEdgeStyle=1;orthogonal=1;" parent="1" source="PAJFCA02" target="DDFHX0B" edge="1">
          <mxGeometry relative="1" as="geometry">
            <Array as="points">
              <mxPoint x="184" y="557.5"/>
              <mxPoint x="258" y="650"/>
            </Array>
          </mxGeometry>
        </mxCell>
        <mxCell id="1U-jiy-VnO9qoer01Sv9-99" value="" style="curved=1;endArrow=blockThin;endFill=1;fontSize=11;noEdgeStyle=1;orthogonal=1;" parent="1" source="PAJFBA02" target="ODM88D1R" edge="1">
          <mxGeometry relative="1" as="geometry">
            <Array as="points">
              <mxPoint x="182" y="689"/>
              <mxPoint x="258" y="1739.2857142857142"/>
            </Array>
          </mxGeometry>
        </mxCell>
        <mxCell id="1U-jiy-VnO9qoer01Sv9-100" value="" style="curved=1;endArrow=blockThin;endFill=1;fontSize=11;noEdgeStyle=1;orthogonal=1;" parent="1" source="PAJFBB00" target="ODM88D1R" edge="1">
          <mxGeometry relative="1" as="geometry">
            <Array as="points">
              <mxPoint x="186" y="1765"/>
              <mxPoint x="252" y="1765.0000000000002"/>
            </Array>
          </mxGeometry>
        </mxCell>
        <mxCell id="1U-jiy-VnO9qoer01Sv9-101" value="" style="curved=1;endArrow=blockThin;endFill=1;fontSize=11;noEdgeStyle=1;orthogonal=1;" parent="1" source="PAJGKA01" target="ODM88D1R" edge="1">
          <mxGeometry relative="1" as="geometry">
            <Array as="points">
              <mxPoint x="186" y="1265"/>
              <mxPoint x="256" y="1747.857142857143"/>
            </Array>
          </mxGeometry>
        </mxCell>
        <mxCell id="1U-jiy-VnO9qoer01Sv9-102" value="" style="curved=1;endArrow=blockThin;endFill=1;fontSize=11;noEdgeStyle=1;orthogonal=1;" parent="1" source="PAJGUA01" target="ODM88D1R" edge="1">
          <mxGeometry relative="1" as="geometry">
            <Array as="points">
              <mxPoint x="186" y="1465"/>
              <mxPoint x="254" y="1756.4285714285716"/>
            </Array>
          </mxGeometry>
        </mxCell>
        <mxCell id="1U-jiy-VnO9qoer01Sv9-103" value="" style="curved=1;endArrow=blockThin;endFill=1;fontSize=11;noEdgeStyle=1;orthogonal=1;" parent="1" source="PAJHQA01" target="ODM88D1R" edge="1">
          <mxGeometry relative="1" as="geometry">
            <Array as="points">
              <mxPoint x="182" y="3241"/>
              <mxPoint x="258" y="1790.7142857142862"/>
            </Array>
          </mxGeometry>
        </mxCell>
        <mxCell id="1U-jiy-VnO9qoer01Sv9-104" value="" style="curved=1;endArrow=blockThin;endFill=1;fontSize=11;noEdgeStyle=1;orthogonal=1;" parent="1" source="PAJIIA01" target="ODM88D1R" edge="1">
          <mxGeometry relative="1" as="geometry">
            <Array as="points">
              <mxPoint x="182" y="2841"/>
              <mxPoint x="256" y="1782.1428571428576"/>
            </Array>
          </mxGeometry>
        </mxCell>
        <mxCell id="1U-jiy-VnO9qoer01Sv9-105" value="" style="curved=1;endArrow=blockThin;endFill=1;fontSize=11;noEdgeStyle=1;orthogonal=1;" parent="1" source="PAJEWA01" target="ODM88D1R" edge="1">
          <mxGeometry relative="1" as="geometry">
            <Array as="points">
              <mxPoint x="186" y="1865"/>
              <mxPoint x="254" y="1773.571428571429"/>
            </Array>
          </mxGeometry>
        </mxCell>
        <mxCell id="1U-jiy-VnO9qoer01Sv9-106" value="" style="curved=1;endArrow=blockThin;endFill=1;fontSize=11;noEdgeStyle=1;orthogonal=1;" parent="1" source="PAJHQA01" target="MQ95DCCL01" edge="1">
          <mxGeometry relative="1" as="geometry">
            <Array as="points">
              <mxPoint x="184" y="3277"/>
              <mxPoint x="256" y="2215"/>
            </Array>
          </mxGeometry>
        </mxCell>
        <mxCell id="1U-jiy-VnO9qoer01Sv9-107" value="" style="curved=1;endArrow=blockThin;endFill=1;fontSize=11;noEdgeStyle=1;orthogonal=1;" parent="1" source="PAJIIA01" target="MQ95DCCL01" edge="1">
          <mxGeometry relative="1" as="geometry">
            <Array as="points">
              <mxPoint x="184" y="2877"/>
              <mxPoint x="258" y="2195"/>
            </Array>
          </mxGeometry>
        </mxCell>
        <mxCell id="1U-jiy-VnO9qoer01Sv9-108" value="" style="curved=1;endArrow=blockThin;endFill=1;fontSize=11;noEdgeStyle=1;orthogonal=1;" parent="1" source="PAJIJA00" target="MQ95DCCL01" edge="1">
          <mxGeometry relative="1" as="geometry">
            <Array as="points">
              <mxPoint x="184" y="3372.5"/>
              <mxPoint x="258" y="2235"/>
            </Array>
          </mxGeometry>
        </mxCell>
        <mxCell id="1U-jiy-VnO9qoer01Sv9-109" value="" style="curved=1;endArrow=blockThin;endFill=1;fontSize=11;noEdgeStyle=1;orthogonal=1;" parent="1" source="PAJHQA01" target="MQ95DCCL02" edge="1">
          <mxGeometry relative="1" as="geometry">
            <Array as="points">
              <mxPoint x="182" y="3289"/>
              <mxPoint x="256" y="3265"/>
            </Array>
          </mxGeometry>
        </mxCell>
        <mxCell id="1U-jiy-VnO9qoer01Sv9-110" value="" style="curved=1;endArrow=blockThin;endFill=1;fontSize=11;noEdgeStyle=1;orthogonal=1;" parent="1" source="PAJIIA01" target="MQ95DCCL02" edge="1">
          <mxGeometry relative="1" as="geometry">
            <Array as="points">
              <mxPoint x="182" y="2889"/>
              <mxPoint x="258" y="3245"/>
            </Array>
          </mxGeometry>
        </mxCell>
        <mxCell id="1U-jiy-VnO9qoer01Sv9-111" value="" style="curved=1;endArrow=blockThin;endFill=1;fontSize=11;noEdgeStyle=1;orthogonal=1;" parent="1" source="PAJIJA00" target="MQ95DCCL02" edge="1">
          <mxGeometry relative="1" as="geometry">
            <Array as="points">
              <mxPoint x="182" y="3387.5"/>
              <mxPoint x="258" y="3285"/>
            </Array>
          </mxGeometry>
        </mxCell>
        <mxCell id="1U-jiy-VnO9qoer01Sv9-112" value="" style="curved=1;endArrow=blockThin;endFill=1;fontSize=11;noEdgeStyle=1;orthogonal=1;" parent="1" source="PAJIQA02" target="ECDCTR01" edge="1">
          <mxGeometry relative="1" as="geometry">
            <Array as="points">
              <mxPoint x="172" y="70"/>
              <mxPoint x="248" y="35"/>
            </Array>
          </mxGeometry>
        </mxCell>
        <mxCell id="1U-jiy-VnO9qoer01Sv9-113" value="" style="curved=1;endArrow=blockThin;endFill=1;fontSize=11;noEdgeStyle=1;orthogonal=1;" parent="1" source="PAJIQA02" target="ECDCTR02" edge="1">
          <mxGeometry relative="1" as="geometry">
            <Array as="points">
              <mxPoint x="172" y="100"/>
              <mxPoint x="248" y="135"/>
            </Array>
          </mxGeometry>
        </mxCell>
      </root>
    </mxGraphModel>
  </diagram>
</mxfile>
